%TF.GenerationSoftware,KiCad,Pcbnew,7.0.6*%
%TF.CreationDate,2023-07-25T20:45:17+02:00*%
%TF.ProjectId,led_strip,6c65645f-7374-4726-9970-2e6b69636164,rev?*%
%TF.SameCoordinates,Original*%
%TF.FileFunction,Soldermask,Top*%
%TF.FilePolarity,Negative*%
%FSLAX46Y46*%
G04 Gerber Fmt 4.6, Leading zero omitted, Abs format (unit mm)*
G04 Created by KiCad (PCBNEW 7.0.6) date 2023-07-25 20:45:17*
%MOMM*%
%LPD*%
G01*
G04 APERTURE LIST*
%ADD10R,0.858799X0.508800*%
%ADD11R,0.377800X0.355600*%
%ADD12R,0.406400X0.292100*%
%ADD13R,1.700000X1.700000*%
%ADD14O,1.700000X1.700000*%
G04 APERTURE END LIST*
D10*
%TO.C,U9*%
X108758798Y-45000000D03*
X108758798Y-45950000D03*
X110000000Y-45950000D03*
X110000000Y-45000000D03*
%TD*%
%TO.C,U8*%
X101758798Y-45050000D03*
X101758798Y-46000000D03*
X103000000Y-46000000D03*
X103000000Y-45050000D03*
%TD*%
%TO.C,U7*%
X95379399Y-45050000D03*
X95379399Y-46000000D03*
X96620601Y-46000000D03*
X96620601Y-45050000D03*
%TD*%
%TO.C,U6*%
X108758798Y-40000000D03*
X108758798Y-40950000D03*
X110000000Y-40950000D03*
X110000000Y-40000000D03*
%TD*%
%TO.C,U5*%
X102000000Y-40000000D03*
X102000000Y-40950000D03*
X103241202Y-40950000D03*
X103241202Y-40000000D03*
%TD*%
%TO.C,U4*%
X95358798Y-40050000D03*
X95358798Y-41000000D03*
X96600000Y-41000000D03*
X96600000Y-40050000D03*
%TD*%
%TO.C,U3*%
X108758798Y-35000000D03*
X108758798Y-35950000D03*
X110000000Y-35950000D03*
X110000000Y-35000000D03*
%TD*%
%TO.C,U2*%
X101958798Y-35000000D03*
X101958798Y-35950000D03*
X103200000Y-35950000D03*
X103200000Y-35000000D03*
%TD*%
%TO.C,U1*%
X95379399Y-35000000D03*
X95379399Y-35950000D03*
X96620601Y-35950000D03*
X96620601Y-35000000D03*
%TD*%
D11*
%TO.C,R2*%
X119000000Y-45000000D03*
X119682600Y-45000000D03*
%TD*%
%TO.C,R1*%
X90000000Y-35000000D03*
X90682600Y-35000000D03*
%TD*%
D12*
%TO.C,C1*%
X87400000Y-51000000D03*
X87400000Y-50149100D03*
%TD*%
D13*
%TO.C,J2*%
X82000000Y-35000000D03*
D14*
X82000000Y-37540000D03*
%TD*%
M02*
