%TF.GenerationSoftware,KiCad,Pcbnew,7.0.6*%
%TF.CreationDate,2023-07-25T20:45:17+02:00*%
%TF.ProjectId,led_strip,6c65645f-7374-4726-9970-2e6b69636164,rev?*%
%TF.SameCoordinates,Original*%
%TF.FileFunction,Legend,Top*%
%TF.FilePolarity,Positive*%
%FSLAX46Y46*%
G04 Gerber Fmt 4.6, Leading zero omitted, Abs format (unit mm)*
G04 Created by KiCad (PCBNEW 7.0.6) date 2023-07-25 20:45:17*
%MOMM*%
%LPD*%
G01*
G04 APERTURE LIST*
%ADD10C,0.150000*%
%ADD11C,0.152400*%
%ADD12C,0.120000*%
G04 APERTURE END LIST*
D10*
X108617494Y-44929819D02*
X108617494Y-45739342D01*
X108617494Y-45739342D02*
X108665113Y-45834580D01*
X108665113Y-45834580D02*
X108712732Y-45882200D01*
X108712732Y-45882200D02*
X108807970Y-45929819D01*
X108807970Y-45929819D02*
X108998446Y-45929819D01*
X108998446Y-45929819D02*
X109093684Y-45882200D01*
X109093684Y-45882200D02*
X109141303Y-45834580D01*
X109141303Y-45834580D02*
X109188922Y-45739342D01*
X109188922Y-45739342D02*
X109188922Y-44929819D01*
X109712732Y-45929819D02*
X109903208Y-45929819D01*
X109903208Y-45929819D02*
X109998446Y-45882200D01*
X109998446Y-45882200D02*
X110046065Y-45834580D01*
X110046065Y-45834580D02*
X110141303Y-45691723D01*
X110141303Y-45691723D02*
X110188922Y-45501247D01*
X110188922Y-45501247D02*
X110188922Y-45120295D01*
X110188922Y-45120295D02*
X110141303Y-45025057D01*
X110141303Y-45025057D02*
X110093684Y-44977438D01*
X110093684Y-44977438D02*
X109998446Y-44929819D01*
X109998446Y-44929819D02*
X109807970Y-44929819D01*
X109807970Y-44929819D02*
X109712732Y-44977438D01*
X109712732Y-44977438D02*
X109665113Y-45025057D01*
X109665113Y-45025057D02*
X109617494Y-45120295D01*
X109617494Y-45120295D02*
X109617494Y-45358390D01*
X109617494Y-45358390D02*
X109665113Y-45453628D01*
X109665113Y-45453628D02*
X109712732Y-45501247D01*
X109712732Y-45501247D02*
X109807970Y-45548866D01*
X109807970Y-45548866D02*
X109998446Y-45548866D01*
X109998446Y-45548866D02*
X110093684Y-45501247D01*
X110093684Y-45501247D02*
X110141303Y-45453628D01*
X110141303Y-45453628D02*
X110188922Y-45358390D01*
X101617494Y-44979819D02*
X101617494Y-45789342D01*
X101617494Y-45789342D02*
X101665113Y-45884580D01*
X101665113Y-45884580D02*
X101712732Y-45932200D01*
X101712732Y-45932200D02*
X101807970Y-45979819D01*
X101807970Y-45979819D02*
X101998446Y-45979819D01*
X101998446Y-45979819D02*
X102093684Y-45932200D01*
X102093684Y-45932200D02*
X102141303Y-45884580D01*
X102141303Y-45884580D02*
X102188922Y-45789342D01*
X102188922Y-45789342D02*
X102188922Y-44979819D01*
X102807970Y-45408390D02*
X102712732Y-45360771D01*
X102712732Y-45360771D02*
X102665113Y-45313152D01*
X102665113Y-45313152D02*
X102617494Y-45217914D01*
X102617494Y-45217914D02*
X102617494Y-45170295D01*
X102617494Y-45170295D02*
X102665113Y-45075057D01*
X102665113Y-45075057D02*
X102712732Y-45027438D01*
X102712732Y-45027438D02*
X102807970Y-44979819D01*
X102807970Y-44979819D02*
X102998446Y-44979819D01*
X102998446Y-44979819D02*
X103093684Y-45027438D01*
X103093684Y-45027438D02*
X103141303Y-45075057D01*
X103141303Y-45075057D02*
X103188922Y-45170295D01*
X103188922Y-45170295D02*
X103188922Y-45217914D01*
X103188922Y-45217914D02*
X103141303Y-45313152D01*
X103141303Y-45313152D02*
X103093684Y-45360771D01*
X103093684Y-45360771D02*
X102998446Y-45408390D01*
X102998446Y-45408390D02*
X102807970Y-45408390D01*
X102807970Y-45408390D02*
X102712732Y-45456009D01*
X102712732Y-45456009D02*
X102665113Y-45503628D01*
X102665113Y-45503628D02*
X102617494Y-45598866D01*
X102617494Y-45598866D02*
X102617494Y-45789342D01*
X102617494Y-45789342D02*
X102665113Y-45884580D01*
X102665113Y-45884580D02*
X102712732Y-45932200D01*
X102712732Y-45932200D02*
X102807970Y-45979819D01*
X102807970Y-45979819D02*
X102998446Y-45979819D01*
X102998446Y-45979819D02*
X103093684Y-45932200D01*
X103093684Y-45932200D02*
X103141303Y-45884580D01*
X103141303Y-45884580D02*
X103188922Y-45789342D01*
X103188922Y-45789342D02*
X103188922Y-45598866D01*
X103188922Y-45598866D02*
X103141303Y-45503628D01*
X103141303Y-45503628D02*
X103093684Y-45456009D01*
X103093684Y-45456009D02*
X102998446Y-45408390D01*
X95238095Y-44979819D02*
X95238095Y-45789342D01*
X95238095Y-45789342D02*
X95285714Y-45884580D01*
X95285714Y-45884580D02*
X95333333Y-45932200D01*
X95333333Y-45932200D02*
X95428571Y-45979819D01*
X95428571Y-45979819D02*
X95619047Y-45979819D01*
X95619047Y-45979819D02*
X95714285Y-45932200D01*
X95714285Y-45932200D02*
X95761904Y-45884580D01*
X95761904Y-45884580D02*
X95809523Y-45789342D01*
X95809523Y-45789342D02*
X95809523Y-44979819D01*
X96190476Y-44979819D02*
X96857142Y-44979819D01*
X96857142Y-44979819D02*
X96428571Y-45979819D01*
X108617494Y-39929819D02*
X108617494Y-40739342D01*
X108617494Y-40739342D02*
X108665113Y-40834580D01*
X108665113Y-40834580D02*
X108712732Y-40882200D01*
X108712732Y-40882200D02*
X108807970Y-40929819D01*
X108807970Y-40929819D02*
X108998446Y-40929819D01*
X108998446Y-40929819D02*
X109093684Y-40882200D01*
X109093684Y-40882200D02*
X109141303Y-40834580D01*
X109141303Y-40834580D02*
X109188922Y-40739342D01*
X109188922Y-40739342D02*
X109188922Y-39929819D01*
X110093684Y-39929819D02*
X109903208Y-39929819D01*
X109903208Y-39929819D02*
X109807970Y-39977438D01*
X109807970Y-39977438D02*
X109760351Y-40025057D01*
X109760351Y-40025057D02*
X109665113Y-40167914D01*
X109665113Y-40167914D02*
X109617494Y-40358390D01*
X109617494Y-40358390D02*
X109617494Y-40739342D01*
X109617494Y-40739342D02*
X109665113Y-40834580D01*
X109665113Y-40834580D02*
X109712732Y-40882200D01*
X109712732Y-40882200D02*
X109807970Y-40929819D01*
X109807970Y-40929819D02*
X109998446Y-40929819D01*
X109998446Y-40929819D02*
X110093684Y-40882200D01*
X110093684Y-40882200D02*
X110141303Y-40834580D01*
X110141303Y-40834580D02*
X110188922Y-40739342D01*
X110188922Y-40739342D02*
X110188922Y-40501247D01*
X110188922Y-40501247D02*
X110141303Y-40406009D01*
X110141303Y-40406009D02*
X110093684Y-40358390D01*
X110093684Y-40358390D02*
X109998446Y-40310771D01*
X109998446Y-40310771D02*
X109807970Y-40310771D01*
X109807970Y-40310771D02*
X109712732Y-40358390D01*
X109712732Y-40358390D02*
X109665113Y-40406009D01*
X109665113Y-40406009D02*
X109617494Y-40501247D01*
X101858696Y-39929819D02*
X101858696Y-40739342D01*
X101858696Y-40739342D02*
X101906315Y-40834580D01*
X101906315Y-40834580D02*
X101953934Y-40882200D01*
X101953934Y-40882200D02*
X102049172Y-40929819D01*
X102049172Y-40929819D02*
X102239648Y-40929819D01*
X102239648Y-40929819D02*
X102334886Y-40882200D01*
X102334886Y-40882200D02*
X102382505Y-40834580D01*
X102382505Y-40834580D02*
X102430124Y-40739342D01*
X102430124Y-40739342D02*
X102430124Y-39929819D01*
X103382505Y-39929819D02*
X102906315Y-39929819D01*
X102906315Y-39929819D02*
X102858696Y-40406009D01*
X102858696Y-40406009D02*
X102906315Y-40358390D01*
X102906315Y-40358390D02*
X103001553Y-40310771D01*
X103001553Y-40310771D02*
X103239648Y-40310771D01*
X103239648Y-40310771D02*
X103334886Y-40358390D01*
X103334886Y-40358390D02*
X103382505Y-40406009D01*
X103382505Y-40406009D02*
X103430124Y-40501247D01*
X103430124Y-40501247D02*
X103430124Y-40739342D01*
X103430124Y-40739342D02*
X103382505Y-40834580D01*
X103382505Y-40834580D02*
X103334886Y-40882200D01*
X103334886Y-40882200D02*
X103239648Y-40929819D01*
X103239648Y-40929819D02*
X103001553Y-40929819D01*
X103001553Y-40929819D02*
X102906315Y-40882200D01*
X102906315Y-40882200D02*
X102858696Y-40834580D01*
X95217494Y-39979819D02*
X95217494Y-40789342D01*
X95217494Y-40789342D02*
X95265113Y-40884580D01*
X95265113Y-40884580D02*
X95312732Y-40932200D01*
X95312732Y-40932200D02*
X95407970Y-40979819D01*
X95407970Y-40979819D02*
X95598446Y-40979819D01*
X95598446Y-40979819D02*
X95693684Y-40932200D01*
X95693684Y-40932200D02*
X95741303Y-40884580D01*
X95741303Y-40884580D02*
X95788922Y-40789342D01*
X95788922Y-40789342D02*
X95788922Y-39979819D01*
X96693684Y-40313152D02*
X96693684Y-40979819D01*
X96455589Y-39932200D02*
X96217494Y-40646485D01*
X96217494Y-40646485D02*
X96836541Y-40646485D01*
X108617494Y-34929819D02*
X108617494Y-35739342D01*
X108617494Y-35739342D02*
X108665113Y-35834580D01*
X108665113Y-35834580D02*
X108712732Y-35882200D01*
X108712732Y-35882200D02*
X108807970Y-35929819D01*
X108807970Y-35929819D02*
X108998446Y-35929819D01*
X108998446Y-35929819D02*
X109093684Y-35882200D01*
X109093684Y-35882200D02*
X109141303Y-35834580D01*
X109141303Y-35834580D02*
X109188922Y-35739342D01*
X109188922Y-35739342D02*
X109188922Y-34929819D01*
X109569875Y-34929819D02*
X110188922Y-34929819D01*
X110188922Y-34929819D02*
X109855589Y-35310771D01*
X109855589Y-35310771D02*
X109998446Y-35310771D01*
X109998446Y-35310771D02*
X110093684Y-35358390D01*
X110093684Y-35358390D02*
X110141303Y-35406009D01*
X110141303Y-35406009D02*
X110188922Y-35501247D01*
X110188922Y-35501247D02*
X110188922Y-35739342D01*
X110188922Y-35739342D02*
X110141303Y-35834580D01*
X110141303Y-35834580D02*
X110093684Y-35882200D01*
X110093684Y-35882200D02*
X109998446Y-35929819D01*
X109998446Y-35929819D02*
X109712732Y-35929819D01*
X109712732Y-35929819D02*
X109617494Y-35882200D01*
X109617494Y-35882200D02*
X109569875Y-35834580D01*
X101817494Y-34929819D02*
X101817494Y-35739342D01*
X101817494Y-35739342D02*
X101865113Y-35834580D01*
X101865113Y-35834580D02*
X101912732Y-35882200D01*
X101912732Y-35882200D02*
X102007970Y-35929819D01*
X102007970Y-35929819D02*
X102198446Y-35929819D01*
X102198446Y-35929819D02*
X102293684Y-35882200D01*
X102293684Y-35882200D02*
X102341303Y-35834580D01*
X102341303Y-35834580D02*
X102388922Y-35739342D01*
X102388922Y-35739342D02*
X102388922Y-34929819D01*
X102817494Y-35025057D02*
X102865113Y-34977438D01*
X102865113Y-34977438D02*
X102960351Y-34929819D01*
X102960351Y-34929819D02*
X103198446Y-34929819D01*
X103198446Y-34929819D02*
X103293684Y-34977438D01*
X103293684Y-34977438D02*
X103341303Y-35025057D01*
X103341303Y-35025057D02*
X103388922Y-35120295D01*
X103388922Y-35120295D02*
X103388922Y-35215533D01*
X103388922Y-35215533D02*
X103341303Y-35358390D01*
X103341303Y-35358390D02*
X102769875Y-35929819D01*
X102769875Y-35929819D02*
X103388922Y-35929819D01*
X95238095Y-34929819D02*
X95238095Y-35739342D01*
X95238095Y-35739342D02*
X95285714Y-35834580D01*
X95285714Y-35834580D02*
X95333333Y-35882200D01*
X95333333Y-35882200D02*
X95428571Y-35929819D01*
X95428571Y-35929819D02*
X95619047Y-35929819D01*
X95619047Y-35929819D02*
X95714285Y-35882200D01*
X95714285Y-35882200D02*
X95761904Y-35834580D01*
X95761904Y-35834580D02*
X95809523Y-35739342D01*
X95809523Y-35739342D02*
X95809523Y-34929819D01*
X96809523Y-35929819D02*
X96238095Y-35929819D01*
X96523809Y-35929819D02*
X96523809Y-34929819D01*
X96523809Y-34929819D02*
X96428571Y-35072676D01*
X96428571Y-35072676D02*
X96333333Y-35167914D01*
X96333333Y-35167914D02*
X96238095Y-35215533D01*
X119174633Y-45454819D02*
X118841300Y-44978628D01*
X118603205Y-45454819D02*
X118603205Y-44454819D01*
X118603205Y-44454819D02*
X118984157Y-44454819D01*
X118984157Y-44454819D02*
X119079395Y-44502438D01*
X119079395Y-44502438D02*
X119127014Y-44550057D01*
X119127014Y-44550057D02*
X119174633Y-44645295D01*
X119174633Y-44645295D02*
X119174633Y-44788152D01*
X119174633Y-44788152D02*
X119127014Y-44883390D01*
X119127014Y-44883390D02*
X119079395Y-44931009D01*
X119079395Y-44931009D02*
X118984157Y-44978628D01*
X118984157Y-44978628D02*
X118603205Y-44978628D01*
X119555586Y-44550057D02*
X119603205Y-44502438D01*
X119603205Y-44502438D02*
X119698443Y-44454819D01*
X119698443Y-44454819D02*
X119936538Y-44454819D01*
X119936538Y-44454819D02*
X120031776Y-44502438D01*
X120031776Y-44502438D02*
X120079395Y-44550057D01*
X120079395Y-44550057D02*
X120127014Y-44645295D01*
X120127014Y-44645295D02*
X120127014Y-44740533D01*
X120127014Y-44740533D02*
X120079395Y-44883390D01*
X120079395Y-44883390D02*
X119507967Y-45454819D01*
X119507967Y-45454819D02*
X120127014Y-45454819D01*
X90174633Y-35454819D02*
X89841300Y-34978628D01*
X89603205Y-35454819D02*
X89603205Y-34454819D01*
X89603205Y-34454819D02*
X89984157Y-34454819D01*
X89984157Y-34454819D02*
X90079395Y-34502438D01*
X90079395Y-34502438D02*
X90127014Y-34550057D01*
X90127014Y-34550057D02*
X90174633Y-34645295D01*
X90174633Y-34645295D02*
X90174633Y-34788152D01*
X90174633Y-34788152D02*
X90127014Y-34883390D01*
X90127014Y-34883390D02*
X90079395Y-34931009D01*
X90079395Y-34931009D02*
X89984157Y-34978628D01*
X89984157Y-34978628D02*
X89603205Y-34978628D01*
X91127014Y-35454819D02*
X90555586Y-35454819D01*
X90841300Y-35454819D02*
X90841300Y-34454819D01*
X90841300Y-34454819D02*
X90746062Y-34597676D01*
X90746062Y-34597676D02*
X90650824Y-34692914D01*
X90650824Y-34692914D02*
X90555586Y-34740533D01*
X87040419Y-50407883D02*
X86992800Y-50360264D01*
X86992800Y-50360264D02*
X86945180Y-50217407D01*
X86945180Y-50217407D02*
X86945180Y-50122169D01*
X86945180Y-50122169D02*
X86992800Y-49979312D01*
X86992800Y-49979312D02*
X87088038Y-49884074D01*
X87088038Y-49884074D02*
X87183276Y-49836455D01*
X87183276Y-49836455D02*
X87373752Y-49788836D01*
X87373752Y-49788836D02*
X87516609Y-49788836D01*
X87516609Y-49788836D02*
X87707085Y-49836455D01*
X87707085Y-49836455D02*
X87802323Y-49884074D01*
X87802323Y-49884074D02*
X87897561Y-49979312D01*
X87897561Y-49979312D02*
X87945180Y-50122169D01*
X87945180Y-50122169D02*
X87945180Y-50217407D01*
X87945180Y-50217407D02*
X87897561Y-50360264D01*
X87897561Y-50360264D02*
X87849942Y-50407883D01*
X86945180Y-51360264D02*
X86945180Y-50788836D01*
X86945180Y-51074550D02*
X87945180Y-51074550D01*
X87945180Y-51074550D02*
X87802323Y-50979312D01*
X87802323Y-50979312D02*
X87707085Y-50884074D01*
X87707085Y-50884074D02*
X87659466Y-50788836D01*
X81666666Y-32124819D02*
X81666666Y-32839104D01*
X81666666Y-32839104D02*
X81619047Y-32981961D01*
X81619047Y-32981961D02*
X81523809Y-33077200D01*
X81523809Y-33077200D02*
X81380952Y-33124819D01*
X81380952Y-33124819D02*
X81285714Y-33124819D01*
X82095238Y-32220057D02*
X82142857Y-32172438D01*
X82142857Y-32172438D02*
X82238095Y-32124819D01*
X82238095Y-32124819D02*
X82476190Y-32124819D01*
X82476190Y-32124819D02*
X82571428Y-32172438D01*
X82571428Y-32172438D02*
X82619047Y-32220057D01*
X82619047Y-32220057D02*
X82666666Y-32315295D01*
X82666666Y-32315295D02*
X82666666Y-32410533D01*
X82666666Y-32410533D02*
X82619047Y-32553390D01*
X82619047Y-32553390D02*
X82047619Y-33124819D01*
X82047619Y-33124819D02*
X82666666Y-33124819D01*
D11*
%TO.C,U9*%
X107430200Y-45000000D02*
G75*
G03*
X107430200Y-45000000I-101600J0D01*
G01*
%TO.C,U8*%
X100430200Y-45050000D02*
G75*
G03*
X100430200Y-45050000I-101600J0D01*
G01*
%TO.C,U7*%
X94050801Y-45050000D02*
G75*
G03*
X94050801Y-45050000I-101600J0D01*
G01*
%TO.C,U6*%
X107430200Y-40000000D02*
G75*
G03*
X107430200Y-40000000I-101600J0D01*
G01*
%TO.C,U5*%
X100671402Y-40000000D02*
G75*
G03*
X100671402Y-40000000I-101600J0D01*
G01*
%TO.C,U4*%
X94030200Y-40050000D02*
G75*
G03*
X94030200Y-40050000I-101600J0D01*
G01*
%TO.C,U3*%
X107430200Y-35000000D02*
G75*
G03*
X107430200Y-35000000I-101600J0D01*
G01*
%TO.C,U2*%
X100630200Y-35000000D02*
G75*
G03*
X100630200Y-35000000I-101600J0D01*
G01*
%TO.C,U1*%
X94050801Y-35000000D02*
G75*
G03*
X94050801Y-35000000I-101600J0D01*
G01*
D12*
%TO.C,J2*%
X80670000Y-35000000D02*
X80670000Y-33670000D01*
X80670000Y-38870000D02*
X83330000Y-38870000D01*
X80670000Y-36270000D02*
X80670000Y-38870000D01*
X80670000Y-36270000D02*
X83330000Y-36270000D01*
X80670000Y-33670000D02*
X82000000Y-33670000D01*
X83330000Y-36270000D02*
X83330000Y-38870000D01*
%TD*%
M02*
